<svg width="57" height="45" viewBox="0 0 57 45" fill="none" xmlns="http://www.w3.org/2000/svg">
<g clip-path="url(#clip0_246_458)">
<path d="M52.142 7.15952H42.6205L42.2318 3.70993C42.1023 2.79872 41.7784 2.01768 41.2602 1.4319C40.483 0.520692 39.317 0 38.0864 0H18.9136C17.5534 0 16.258 0.652027 15.4807 1.75734C15.092 2.27803 14.8977 2.92889 14.7682 3.64484L14.3795 7.15952H4.85795C2.20227 7.15952 0 9.37246 0 12.041V39.0891C0.647727 39.0554 1.29545 39.0217 1.94318 38.9961V12.041C1.94318 10.4138 3.23864 9.11211 4.85795 9.11211H15.2216C15.7398 9.11211 16.1284 8.72159 16.1932 8.26599L16.7114 3.90519C16.7761 3.51467 16.9057 3.12415 17.0352 2.86381C17.4886 2.27803 18.1364 1.88751 18.9136 1.88751H38.0864C38.7341 1.88751 39.317 2.14785 39.7705 2.66855C40.0943 3.05907 40.2239 3.57976 40.2886 3.90519L40.8068 8.2009C40.8716 8.72159 41.2602 9.04702 41.7784 9.04702H52.142C53.7614 9.04702 55.0568 10.3488 55.0568 11.9759V39.3773C55.0568 41.0045 53.7614 42.3062 52.142 42.3062H5.25122V44.2588H52.142C54.7977 44.2588 57 42.0459 57 39.3773V12.041C57 9.37246 54.7977 7.15952 52.142 7.15952Z" fill="#CEFF00"/>
<path d="M28.5001 10.7393C21.1808 10.7393 15.2217 16.7272 15.2217 24.082C15.2217 31.4368 21.1808 37.4247 28.5001 37.4247C35.8194 37.4247 41.7785 31.4368 41.7785 24.082C41.7785 16.7272 35.8194 10.7393 28.5001 10.7393ZM28.5001 35.4721C22.2819 35.4721 17.1649 30.3303 17.1649 24.082C17.1649 17.8337 22.2819 12.6919 28.5001 12.6919C34.7183 12.6919 39.8353 17.8337 39.8353 24.082C39.8353 30.3303 34.7183 35.4721 28.5001 35.4721Z" fill="#CEFF00"/>
</g>
<defs>
<clipPath id="clip0_246_458">
<rect width="57" height="44.2588" fill="white"/>
</clipPath>
</defs>
</svg>
