<svg width="10" height="10" viewBox="0 0 10 10" fill="none" xmlns="http://www.w3.org/2000/svg">
<path fill-rule="evenodd" clip-rule="evenodd" d="M9.59915 1.10801C9.79441 0.912752 9.79441 0.59617 9.59915 0.400907C9.40389 0.205645 9.0873 0.205645 8.89204 0.400907L5.00335 4.2896L1.11716 0.403418C0.921903 0.208156 0.60532 0.208156 0.410058 0.403418C0.214796 0.59868 0.214796 0.915263 0.410058 1.11052L4.29624 4.99671L0.406761 8.88619C0.211499 9.08145 0.211499 9.39803 0.406761 9.59329C0.602023 9.78856 0.918606 9.78856 1.11387 9.59329L5.00335 5.70382L8.89534 9.59581C9.0906 9.79107 9.40718 9.79107 9.60244 9.59581C9.79771 9.40054 9.79771 9.08396 9.60244 8.8887L5.71045 4.99671L9.59915 1.10801Z" fill="white"/>
</svg>
