<svg width="83" height="71" viewBox="0 0 83 71" fill="none" xmlns="http://www.w3.org/2000/svg">
<path d="M12.4375 30.1498L12.2474 31.526C10.0074 47.747 21.3032 62.7074 37.4772 64.941C38.7706 65.1196 39.6749 66.3158 39.4956 67.6141C39.3163 68.9124 38.1228 69.819 36.8283 69.6402C18.0664 67.0493 4.96337 49.6953 7.56181 30.8789L7.75185 29.5027L5.63709 31.1091C4.59559 31.9002 3.11177 31.6953 2.32367 30.6515C1.53556 29.6077 1.74107 28.1196 2.78256 27.3285L9.45145 22.2627C10.4929 21.4716 11.9768 21.6765 12.7649 22.7203L17.8113 29.4039C18.5994 30.4476 18.3939 31.9358 17.3524 32.7269C16.3109 33.518 14.827 33.3131 14.0389 32.2693L12.4387 30.1499L12.4375 30.1498ZM70.6289 40.9905L70.8189 39.6143C73.0589 23.3933 61.7631 8.43285 45.5891 6.19931C44.2958 6.02071 43.3915 4.82448 43.5708 3.52617C43.7501 2.22785 44.9435 1.32131 46.2381 1.50008C65 4.09099 78.103 21.445 75.5045 40.2614L75.3145 41.6376L77.4293 40.0312C78.4707 39.2401 79.9546 39.445 80.7427 40.4888C81.5308 41.5326 81.3253 43.0207 80.2838 43.8118L73.6149 48.8776C72.5734 49.6687 71.0896 49.4638 70.3015 48.42L65.2551 41.7364C64.467 40.6926 64.6725 39.2045 65.714 38.4134C66.7555 37.6223 68.2393 37.8272 69.0274 38.871L70.6277 40.9904L70.6289 40.9905ZM47.3938 57.2275C46.3523 58.0186 44.8685 57.8137 44.0804 56.7699L21.8786 27.3653C21.0905 26.3215 21.296 24.8334 22.3375 24.0422L35.6739 13.9118C36.7154 13.1207 38.1992 13.3256 38.9873 14.3694L61.1891 43.774C61.9772 44.8178 61.7717 46.3059 60.7302 47.097L47.3938 57.2275Z" stroke="#CEFF00" stroke-width="2" stroke-miterlimit="10"/>
</svg>
