<svg width="375" height="642" viewBox="0 0 375 642" fill="none" xmlns="http://www.w3.org/2000/svg">
<g filter="url(#filter0_d_211_128)">
<path d="M91.6841 314H88.8441V297.72H93.8241V299.92H91.6841V304.62H93.6241V306.82H91.6841V314ZM98.1254 314L97.9254 313.58C97.7121 313.793 97.4521 313.947 97.1454 314.04C96.8521 314.133 96.5921 314.18 96.3654 314.18C96.0854 314.18 95.8254 314.147 95.5854 314.08C95.3587 314.013 95.1587 313.893 94.9854 313.72C94.8121 313.533 94.6721 313.287 94.5654 312.98C94.4721 312.66 94.4254 312.247 94.4254 311.74V308.7C94.4254 308.167 94.5187 307.747 94.7054 307.44C94.8921 307.12 95.1387 306.873 95.4454 306.7C95.7654 306.527 96.1321 306.4 96.5454 306.32C96.9721 306.24 97.4187 306.167 97.8854 306.1V303.3C97.8854 303.14 97.8387 303.02 97.7454 302.94C97.6654 302.847 97.5721 302.8 97.4654 302.8C97.3587 302.8 97.2654 302.847 97.1854 302.94C97.1054 303.02 97.0654 303.14 97.0654 303.3V305.34H94.5454V303.52C94.5454 302.587 94.7187 301.927 95.0654 301.54C95.4254 301.14 96.0187 300.94 96.8454 300.94H98.3654C99.1521 300.94 99.7054 301.133 100.025 301.52C100.359 301.893 100.525 302.56 100.525 303.52V314H98.1254ZM97.0654 311.68C97.0654 311.853 97.1054 311.987 97.1854 312.08C97.2654 312.16 97.3587 312.2 97.4654 312.2C97.5721 312.2 97.6654 312.16 97.7454 312.08C97.8387 311.987 97.8854 311.853 97.8854 311.68V307.94C97.6321 307.953 97.4321 308 97.2854 308.08C97.1387 308.16 97.0654 308.287 97.0654 308.46V311.68ZM104.958 309.18H107.498V311.46C107.498 312.433 107.338 313.113 107.018 313.5C106.698 313.873 106.144 314.06 105.358 314.06H103.918C103.091 314.06 102.484 313.867 102.098 313.48C101.711 313.08 101.518 312.407 101.518 311.46V303.52C101.518 302.56 101.691 301.893 102.038 301.52C102.384 301.133 102.958 300.94 103.758 300.94H105.178C106.018 300.94 106.611 301.14 106.958 301.54C107.318 301.927 107.498 302.587 107.498 303.52V305.42H104.958V303.3C104.958 303.14 104.918 303.02 104.838 302.94C104.758 302.847 104.664 302.8 104.558 302.8C104.451 302.8 104.351 302.847 104.258 302.94C104.178 303.02 104.138 303.14 104.138 303.3V311.68C104.138 311.853 104.178 311.987 104.258 312.08C104.338 312.16 104.431 312.2 104.538 312.2C104.644 312.2 104.738 312.16 104.818 312.08C104.911 311.987 104.958 311.853 104.958 311.68V309.18ZM111.813 309.18H114.353V311.46C114.353 312.433 114.193 313.113 113.873 313.5C113.553 313.873 112.999 314.06 112.213 314.06H110.793C109.966 314.06 109.359 313.867 108.973 313.48C108.586 313.08 108.393 312.407 108.393 311.46V303.52C108.393 302.56 108.566 301.893 108.913 301.52C109.259 301.133 109.833 300.94 110.633 300.94H111.933C112.759 300.94 113.366 301.14 113.753 301.54C114.153 301.927 114.353 302.587 114.353 303.52V308.04H110.993V311.68C110.993 311.853 111.033 311.987 111.113 312.08C111.193 312.16 111.286 312.2 111.393 312.2C111.499 312.2 111.593 312.16 111.673 312.08C111.766 311.987 111.813 311.853 111.813 311.68V309.18ZM110.993 306.38H111.813V303.3C111.813 303.14 111.773 303.02 111.693 302.94C111.613 302.847 111.519 302.8 111.413 302.8C111.306 302.8 111.206 302.847 111.113 302.94C111.033 303.02 110.993 303.14 110.993 303.3V306.38ZM118.442 301.04H119.102V299.3H121.742V301.04H122.642V302.84H121.742V311.68C121.742 311.853 121.782 311.987 121.862 312.08C121.942 312.16 122.035 312.2 122.142 312.2H122.682V314H120.642C120.308 314 120.042 313.953 119.842 313.86C119.642 313.753 119.482 313.6 119.362 313.4C119.255 313.2 119.182 312.953 119.142 312.66C119.115 312.367 119.102 312.027 119.102 311.64V302.84H118.442V301.04ZM125.895 314H123.275V297.72H125.895V301.5C126.109 301.287 126.355 301.127 126.635 301.02C126.929 300.913 127.189 300.86 127.415 300.86C127.695 300.86 127.949 300.893 128.175 300.96C128.415 301.027 128.622 301.153 128.795 301.34C128.969 301.513 129.102 301.76 129.195 302.08C129.302 302.4 129.355 302.807 129.355 303.3V314H126.715V303.36C126.715 303.187 126.675 303.06 126.595 302.98C126.515 302.887 126.422 302.84 126.315 302.84C126.209 302.84 126.109 302.887 126.015 302.98C125.935 303.06 125.895 303.187 125.895 303.36V314ZM133.766 309.18H136.306V311.46C136.306 312.433 136.146 313.113 135.826 313.5C135.506 313.873 134.952 314.06 134.166 314.06H132.746C131.919 314.06 131.312 313.867 130.926 313.48C130.539 313.08 130.346 312.407 130.346 311.46V303.52C130.346 302.56 130.519 301.893 130.866 301.52C131.212 301.133 131.786 300.94 132.586 300.94H133.886C134.712 300.94 135.319 301.14 135.706 301.54C136.106 301.927 136.306 302.587 136.306 303.52V308.04H132.946V311.68C132.946 311.853 132.986 311.987 133.066 312.08C133.146 312.16 133.239 312.2 133.346 312.2C133.452 312.2 133.546 312.16 133.626 312.08C133.719 311.987 133.766 311.853 133.766 311.68V309.18ZM132.946 306.38H133.766V303.3C133.766 303.14 133.726 303.02 133.646 302.94C133.566 302.847 133.472 302.8 133.366 302.8C133.259 302.8 133.159 302.847 133.066 302.94C132.986 303.02 132.946 303.14 132.946 303.3V306.38ZM146.875 311.74C146.875 312.247 146.822 312.66 146.715 312.98C146.622 313.287 146.488 313.533 146.315 313.72C146.142 313.893 145.935 314.013 145.695 314.08C145.468 314.147 145.215 314.18 144.935 314.18C144.708 314.18 144.448 314.127 144.155 314.02C143.875 313.913 143.628 313.753 143.415 313.54V317H140.795V301.04H143.195L143.415 301.58C143.628 301.367 143.875 301.207 144.155 301.1C144.448 300.993 144.708 300.94 144.935 300.94C145.215 300.94 145.468 300.973 145.695 301.04C145.935 301.107 146.142 301.233 146.315 301.42C146.488 301.593 146.622 301.84 146.715 302.16C146.822 302.48 146.875 302.887 146.875 303.38V311.74ZM143.415 311.68C143.415 311.853 143.455 311.987 143.535 312.08C143.628 312.16 143.728 312.2 143.835 312.2C143.942 312.2 144.035 312.16 144.115 312.08C144.195 311.987 144.235 311.853 144.235 311.68V303.42C144.235 303.247 144.195 303.12 144.115 303.04C144.035 302.96 143.942 302.92 143.835 302.92C143.728 302.92 143.628 302.96 143.535 303.04C143.455 303.12 143.415 303.247 143.415 303.42V311.68ZM153.945 311.46C153.945 312.433 153.772 313.113 153.425 313.5C153.079 313.873 152.505 314.06 151.705 314.06H150.265C149.439 314.06 148.832 313.867 148.445 313.48C148.059 313.08 147.865 312.407 147.865 311.46V303.52C147.865 302.56 148.039 301.893 148.385 301.52C148.732 301.133 149.305 300.94 150.105 300.94H151.525C152.365 300.94 152.979 301.14 153.365 301.54C153.752 301.927 153.945 302.587 153.945 303.52V311.46ZM151.305 303.3C151.305 303.14 151.265 303.02 151.185 302.94C151.105 302.847 151.012 302.8 150.905 302.8C150.799 302.8 150.699 302.847 150.605 302.94C150.525 303.02 150.485 303.14 150.485 303.3V311.68C150.485 311.853 150.525 311.987 150.605 312.08C150.685 312.16 150.779 312.2 150.885 312.2C150.992 312.2 151.085 312.16 151.165 312.08C151.259 311.987 151.305 311.853 151.305 311.68V303.3ZM158.276 309.88C158.276 309.56 158.189 309.287 158.016 309.06C157.856 308.833 157.642 308.627 157.376 308.44C157.122 308.24 156.849 308.053 156.556 307.88C156.262 307.693 155.982 307.48 155.716 307.24C155.462 307 155.249 306.727 155.076 306.42C154.916 306.1 154.836 305.713 154.836 305.26V303.52C154.836 302.56 155.009 301.893 155.356 301.52C155.716 301.133 156.296 300.94 157.096 300.94H158.496C159.336 300.94 159.929 301.14 160.276 301.54C160.636 301.927 160.816 302.587 160.816 303.52V305.34H158.276V303.3C158.276 303.14 158.236 303.02 158.156 302.94C158.076 302.847 157.982 302.8 157.876 302.8C157.769 302.8 157.669 302.847 157.576 302.94C157.496 303.02 157.456 303.14 157.456 303.3V304.78C157.456 305.087 157.542 305.347 157.716 305.56C157.889 305.773 158.102 305.973 158.356 306.16C158.609 306.347 158.882 306.533 159.176 306.72C159.482 306.907 159.762 307.127 160.016 307.38C160.269 307.633 160.482 307.933 160.656 308.28C160.829 308.627 160.916 309.053 160.916 309.56V311.52C160.916 312.48 160.736 313.153 160.376 313.54C160.029 313.927 159.456 314.12 158.656 314.12H157.236C156.409 314.12 155.816 313.92 155.456 313.52C155.109 313.12 154.936 312.453 154.936 311.52V309.3H157.456V311.74C157.456 311.9 157.496 312.027 157.576 312.12C157.656 312.2 157.749 312.24 157.856 312.24C157.962 312.24 158.056 312.2 158.136 312.12C158.229 312.027 158.276 311.9 158.276 311.74V309.88ZM161.411 301.04H162.071V299.3H164.711V301.04H165.611V302.84H164.711V311.68C164.711 311.853 164.751 311.987 164.831 312.08C164.911 312.16 165.004 312.2 165.111 312.2H165.651V314H163.611C163.277 314 163.011 313.953 162.811 313.86C162.611 313.753 162.451 313.6 162.331 313.4C162.224 313.2 162.151 312.953 162.111 312.66C162.084 312.367 162.071 312.027 162.071 311.64V302.84H161.411V301.04ZM169.664 309.18H172.204V311.46C172.204 312.433 172.044 313.113 171.724 313.5C171.404 313.873 170.851 314.06 170.064 314.06H168.644C167.817 314.06 167.211 313.867 166.824 313.48C166.437 313.08 166.244 312.407 166.244 311.46V303.52C166.244 302.56 166.417 301.893 166.764 301.52C167.111 301.133 167.684 300.94 168.484 300.94H169.784C170.611 300.94 171.217 301.14 171.604 301.54C172.004 301.927 172.204 302.587 172.204 303.52V308.04H168.844V311.68C168.844 311.853 168.884 311.987 168.964 312.08C169.044 312.16 169.137 312.2 169.244 312.2C169.351 312.2 169.444 312.16 169.524 312.08C169.617 311.987 169.664 311.853 169.664 311.68V309.18ZM168.844 306.38H169.664V303.3C169.664 303.14 169.624 303.02 169.544 302.94C169.464 302.847 169.371 302.8 169.264 302.8C169.157 302.8 169.057 302.847 168.964 302.94C168.884 303.02 168.844 303.14 168.844 303.3V306.38ZM175.817 314H173.197V301.04H175.577L175.777 301.46C176.057 301.247 176.331 301.093 176.597 301C176.864 300.907 177.111 300.86 177.337 300.86C177.617 300.86 177.871 300.893 178.097 300.96C178.324 301.027 178.517 301.153 178.677 301.34C178.837 301.513 178.957 301.76 179.037 302.08C179.131 302.4 179.177 302.807 179.177 303.3V306.3H176.637V303.36C176.637 303.187 176.597 303.06 176.517 302.98C176.437 302.887 176.344 302.84 176.237 302.84C176.131 302.84 176.031 302.887 175.937 302.98C175.857 303.06 175.817 303.187 175.817 303.36V314ZM191.691 314H188.611L188.091 304.72L187.571 314H184.491L182.971 301.04H185.511L186.011 309.54L186.531 301.04H189.671L190.171 309.54L190.691 301.04H193.211L191.691 314ZM193.705 301.04H196.325V314H193.705V301.04ZM196.325 300.14H193.705V297.72H196.325V300.14ZM196.918 301.04H197.578V299.3H200.218V301.04H201.118V302.84H200.218V311.68C200.218 311.853 200.258 311.987 200.338 312.08C200.418 312.16 200.512 312.2 200.618 312.2H201.158V314H199.118C198.785 314 198.518 313.953 198.318 313.86C198.118 313.753 197.958 313.6 197.838 313.4C197.732 313.2 197.658 312.953 197.618 312.66C197.592 312.367 197.578 312.027 197.578 311.64V302.84H196.918V301.04ZM204.372 314H201.752V297.72H204.372V301.5C204.585 301.287 204.832 301.127 205.112 301.02C205.405 300.913 205.665 300.86 205.892 300.86C206.172 300.86 206.425 300.893 206.652 300.96C206.892 301.027 207.099 301.153 207.272 301.34C207.445 301.513 207.579 301.76 207.672 302.08C207.779 302.4 207.832 302.807 207.832 303.3V314H205.192V303.36C205.192 303.187 205.152 303.06 205.072 302.98C204.992 302.887 204.899 302.84 204.792 302.84C204.685 302.84 204.585 302.887 204.492 302.98C204.412 303.06 204.372 303.187 204.372 303.36V314ZM211.818 301.04H214.358L215.018 310.78L215.678 301.04H218.198L216.398 317H214.198L214.498 314H213.338L211.818 301.04ZM224.785 311.46C224.785 312.433 224.612 313.113 224.265 313.5C223.918 313.873 223.345 314.06 222.545 314.06H221.105C220.278 314.06 219.672 313.867 219.285 313.48C218.898 313.08 218.705 312.407 218.705 311.46V303.52C218.705 302.56 218.878 301.893 219.225 301.52C219.572 301.133 220.145 300.94 220.945 300.94H222.365C223.205 300.94 223.818 301.14 224.205 301.54C224.592 301.927 224.785 302.587 224.785 303.52V311.46ZM222.145 303.3C222.145 303.14 222.105 303.02 222.025 302.94C221.945 302.847 221.852 302.8 221.745 302.8C221.638 302.8 221.538 302.847 221.445 302.94C221.365 303.02 221.325 303.14 221.325 303.3V311.68C221.325 311.853 221.365 311.987 221.445 312.08C221.525 312.16 221.618 312.2 221.725 312.2C221.832 312.2 221.925 312.16 222.005 312.08C222.098 311.987 222.145 311.853 222.145 311.68V303.3ZM229.215 301.04H231.855V314H229.455L229.255 313.58C229.055 313.793 228.802 313.947 228.495 314.04C228.189 314.133 227.922 314.18 227.695 314.18C227.415 314.18 227.155 314.147 226.915 314.08C226.689 314.013 226.489 313.893 226.315 313.72C226.155 313.533 226.022 313.287 225.915 312.98C225.822 312.66 225.775 312.247 225.775 311.74V301.04H228.395V311.68C228.395 311.853 228.435 311.987 228.515 312.08C228.595 312.16 228.689 312.2 228.795 312.2C228.902 312.2 228.995 312.16 229.075 312.08C229.169 311.987 229.215 311.853 229.215 311.68V301.04ZM235.466 314H232.846V301.04H235.226L235.426 301.46C235.706 301.247 235.979 301.093 236.246 301C236.512 300.907 236.759 300.86 236.986 300.86C237.266 300.86 237.519 300.893 237.746 300.96C237.972 301.027 238.166 301.153 238.326 301.34C238.486 301.513 238.606 301.76 238.686 302.08C238.779 302.4 238.826 302.807 238.826 303.3V306.3H236.286V303.36C236.286 303.187 236.246 303.06 236.166 302.98C236.086 302.887 235.992 302.84 235.886 302.84C235.779 302.84 235.679 302.887 235.586 302.98C235.506 303.06 235.466 303.187 235.466 303.36V314ZM246.559 309.18H249.099V311.46C249.099 312.433 248.939 313.113 248.619 313.5C248.299 313.873 247.746 314.06 246.959 314.06H245.519C244.692 314.06 244.086 313.867 243.699 313.48C243.312 313.08 243.119 312.407 243.119 311.46V303.52C243.119 302.56 243.292 301.893 243.639 301.52C243.986 301.133 244.559 300.94 245.359 300.94H246.779C247.619 300.94 248.212 301.14 248.559 301.54C248.919 301.927 249.099 302.587 249.099 303.52V305.42H246.559V303.3C246.559 303.14 246.519 303.02 246.439 302.94C246.359 302.847 246.266 302.8 246.159 302.8C246.052 302.8 245.952 302.847 245.859 302.94C245.779 303.02 245.739 303.14 245.739 303.3V311.68C245.739 311.853 245.779 311.987 245.859 312.08C245.939 312.16 246.032 312.2 246.139 312.2C246.246 312.2 246.339 312.16 246.419 312.08C246.512 311.987 246.559 311.853 246.559 311.68V309.18ZM253.594 314L253.394 313.58C253.181 313.793 252.921 313.947 252.614 314.04C252.321 314.133 252.061 314.18 251.834 314.18C251.554 314.18 251.294 314.147 251.054 314.08C250.827 314.013 250.627 313.893 250.454 313.72C250.281 313.533 250.141 313.287 250.034 312.98C249.941 312.66 249.894 312.247 249.894 311.74V308.7C249.894 308.167 249.987 307.747 250.174 307.44C250.361 307.12 250.607 306.873 250.914 306.7C251.234 306.527 251.601 306.4 252.014 306.32C252.441 306.24 252.887 306.167 253.354 306.1V303.3C253.354 303.14 253.307 303.02 253.214 302.94C253.134 302.847 253.041 302.8 252.934 302.8C252.827 302.8 252.734 302.847 252.654 302.94C252.574 303.02 252.534 303.14 252.534 303.3V305.34H250.014V303.52C250.014 302.587 250.187 301.927 250.534 301.54C250.894 301.14 251.487 300.94 252.314 300.94H253.834C254.621 300.94 255.174 301.133 255.494 301.52C255.827 301.893 255.994 302.56 255.994 303.52V314H253.594ZM252.534 311.68C252.534 311.853 252.574 311.987 252.654 312.08C252.734 312.16 252.827 312.2 252.934 312.2C253.041 312.2 253.134 312.16 253.214 312.08C253.307 311.987 253.354 311.853 253.354 311.68V307.94C253.101 307.953 252.901 308 252.754 308.08C252.607 308.16 252.534 308.287 252.534 308.46V311.68ZM259.606 314H256.986V301.04H259.346L259.566 301.46C259.78 301.247 260.033 301.093 260.326 301C260.633 300.907 260.9 300.86 261.126 300.86C261.486 300.86 261.806 300.92 262.086 301.04C262.366 301.16 262.593 301.387 262.766 301.72C263.02 301.387 263.326 301.16 263.686 301.04C264.06 300.92 264.36 300.86 264.586 300.86C264.866 300.86 265.12 300.893 265.346 300.96C265.586 301.027 265.793 301.153 265.966 301.34C266.14 301.513 266.273 301.76 266.366 302.08C266.473 302.4 266.526 302.807 266.526 303.3V314H263.886V303.36C263.886 303.187 263.846 303.06 263.766 302.98C263.686 302.887 263.593 302.84 263.486 302.84C263.233 302.84 263.093 302.993 263.066 303.3V314H260.426V303.36C260.426 303.187 260.386 303.06 260.306 302.98C260.226 302.887 260.133 302.84 260.026 302.84C259.92 302.84 259.82 302.887 259.726 302.98C259.646 303.06 259.606 303.187 259.606 303.36V314ZM270.953 309.18H273.493V311.46C273.493 312.433 273.333 313.113 273.013 313.5C272.693 313.873 272.14 314.06 271.353 314.06H269.933C269.107 314.06 268.5 313.867 268.113 313.48C267.727 313.08 267.533 312.407 267.533 311.46V303.52C267.533 302.56 267.707 301.893 268.053 301.52C268.4 301.133 268.973 300.94 269.773 300.94H271.073C271.9 300.94 272.507 301.14 272.893 301.54C273.293 301.927 273.493 302.587 273.493 303.52V308.04H270.133V311.68C270.133 311.853 270.173 311.987 270.253 312.08C270.333 312.16 270.427 312.2 270.533 312.2C270.64 312.2 270.733 312.16 270.813 312.08C270.907 311.987 270.953 311.853 270.953 311.68V309.18ZM270.133 306.38H270.953V303.3C270.953 303.14 270.913 303.02 270.833 302.94C270.753 302.847 270.66 302.8 270.553 302.8C270.447 302.8 270.347 302.847 270.253 302.94C270.173 303.02 270.133 303.14 270.133 303.3V306.38ZM277.106 314H274.486V301.04H276.866L277.066 301.46C277.346 301.247 277.62 301.093 277.886 301C278.153 300.907 278.4 300.86 278.626 300.86C278.906 300.86 279.16 300.893 279.386 300.96C279.613 301.027 279.806 301.153 279.966 301.34C280.126 301.513 280.246 301.76 280.326 302.08C280.42 302.4 280.466 302.807 280.466 303.3V306.3H277.926V303.36C277.926 303.187 277.886 303.06 277.806 302.98C277.726 302.887 277.633 302.84 277.526 302.84C277.42 302.84 277.32 302.887 277.226 302.98C277.146 303.06 277.106 303.187 277.106 303.36V314ZM284.864 314L284.664 313.58C284.45 313.793 284.19 313.947 283.884 314.04C283.59 314.133 283.33 314.18 283.104 314.18C282.824 314.18 282.564 314.147 282.324 314.08C282.097 314.013 281.897 313.893 281.724 313.72C281.55 313.533 281.41 313.287 281.304 312.98C281.21 312.66 281.164 312.247 281.164 311.74V308.7C281.164 308.167 281.257 307.747 281.444 307.44C281.63 307.12 281.877 306.873 282.184 306.7C282.504 306.527 282.87 306.4 283.284 306.32C283.71 306.24 284.157 306.167 284.624 306.1V303.3C284.624 303.14 284.577 303.02 284.484 302.94C284.404 302.847 284.31 302.8 284.204 302.8C284.097 302.8 284.004 302.847 283.924 302.94C283.844 303.02 283.804 303.14 283.804 303.3V305.34H281.284V303.52C281.284 302.587 281.457 301.927 281.804 301.54C282.164 301.14 282.757 300.94 283.584 300.94H285.104C285.89 300.94 286.444 301.133 286.764 301.52C287.097 301.893 287.264 302.56 287.264 303.52V314H284.864ZM283.804 311.68C283.804 311.853 283.844 311.987 283.924 312.08C284.004 312.16 284.097 312.2 284.204 312.2C284.31 312.2 284.404 312.16 284.484 312.08C284.577 311.987 284.624 311.853 284.624 311.68V307.94C284.37 307.953 284.17 308 284.024 308.08C283.877 308.16 283.804 308.287 283.804 308.46V311.68ZM122.807 325.04H123.467V323.3H126.107V325.04H127.007V326.84H126.107V335.68C126.107 335.853 126.147 335.987 126.227 336.08C126.307 336.16 126.4 336.2 126.507 336.2H127.047V338H125.007C124.674 338 124.407 337.953 124.207 337.86C124.007 337.753 123.847 337.6 123.727 337.4C123.62 337.2 123.547 336.953 123.507 336.66C123.48 336.367 123.467 336.027 123.467 335.64V326.84H122.807V325.04ZM133.721 335.46C133.721 336.433 133.547 337.113 133.201 337.5C132.854 337.873 132.281 338.06 131.481 338.06H130.041C129.214 338.06 128.607 337.867 128.221 337.48C127.834 337.08 127.641 336.407 127.641 335.46V327.52C127.641 326.56 127.814 325.893 128.161 325.52C128.507 325.133 129.081 324.94 129.881 324.94H131.301C132.141 324.94 132.754 325.14 133.141 325.54C133.527 325.927 133.721 326.587 133.721 327.52V335.46ZM131.081 327.3C131.081 327.14 131.041 327.02 130.961 326.94C130.881 326.847 130.787 326.8 130.681 326.8C130.574 326.8 130.474 326.847 130.381 326.94C130.301 327.02 130.261 327.14 130.261 327.3V335.68C130.261 335.853 130.301 335.987 130.381 336.08C130.461 336.16 130.554 336.2 130.661 336.2C130.767 336.2 130.861 336.16 130.941 336.08C131.034 335.987 131.081 335.853 131.081 335.68V327.3ZM141.547 333.88C141.547 333.56 141.46 333.287 141.287 333.06C141.127 332.833 140.914 332.627 140.647 332.44C140.394 332.24 140.12 332.053 139.827 331.88C139.534 331.693 139.254 331.48 138.987 331.24C138.734 331 138.52 330.727 138.347 330.42C138.187 330.1 138.107 329.713 138.107 329.26V327.52C138.107 326.56 138.28 325.893 138.627 325.52C138.987 325.133 139.567 324.94 140.367 324.94H141.767C142.607 324.94 143.2 325.14 143.547 325.54C143.907 325.927 144.087 326.587 144.087 327.52V329.34H141.547V327.3C141.547 327.14 141.507 327.02 141.427 326.94C141.347 326.847 141.254 326.8 141.147 326.8C141.04 326.8 140.94 326.847 140.847 326.94C140.767 327.02 140.727 327.14 140.727 327.3V328.78C140.727 329.087 140.814 329.347 140.987 329.56C141.16 329.773 141.374 329.973 141.627 330.16C141.88 330.347 142.154 330.533 142.447 330.72C142.754 330.907 143.034 331.127 143.287 331.38C143.54 331.633 143.754 331.933 143.927 332.28C144.1 332.627 144.187 333.053 144.187 333.56V335.52C144.187 336.48 144.007 337.153 143.647 337.54C143.3 337.927 142.727 338.12 141.927 338.12H140.507C139.68 338.12 139.087 337.92 138.727 337.52C138.38 337.12 138.207 336.453 138.207 335.52V333.3H140.727V335.74C140.727 335.9 140.767 336.027 140.847 336.12C140.927 336.2 141.02 336.24 141.127 336.24C141.234 336.24 141.327 336.2 141.407 336.12C141.5 336.027 141.547 335.9 141.547 335.74V333.88ZM144.682 325.04H145.342V323.3H147.982V325.04H148.882V326.84H147.982V335.68C147.982 335.853 148.022 335.987 148.102 336.08C148.182 336.16 148.275 336.2 148.382 336.2H148.922V338H146.882C146.549 338 146.282 337.953 146.082 337.86C145.882 337.753 145.722 337.6 145.602 337.4C145.495 337.2 145.422 336.953 145.382 336.66C145.355 336.367 145.342 336.027 145.342 335.64V326.84H144.682V325.04ZM153.116 338L152.916 337.58C152.702 337.793 152.442 337.947 152.136 338.04C151.842 338.133 151.582 338.18 151.356 338.18C151.076 338.18 150.816 338.147 150.576 338.08C150.349 338.013 150.149 337.893 149.976 337.72C149.802 337.533 149.662 337.287 149.556 336.98C149.462 336.66 149.416 336.247 149.416 335.74V332.7C149.416 332.167 149.509 331.747 149.696 331.44C149.882 331.12 150.129 330.873 150.436 330.7C150.756 330.527 151.122 330.4 151.536 330.32C151.962 330.24 152.409 330.167 152.876 330.1V327.3C152.876 327.14 152.829 327.02 152.736 326.94C152.656 326.847 152.562 326.8 152.456 326.8C152.349 326.8 152.256 326.847 152.176 326.94C152.096 327.02 152.056 327.14 152.056 327.3V329.34H149.536V327.52C149.536 326.587 149.709 325.927 150.056 325.54C150.416 325.14 151.009 324.94 151.836 324.94H153.356C154.142 324.94 154.696 325.133 155.016 325.52C155.349 325.893 155.516 326.56 155.516 327.52V338H153.116ZM152.056 335.68C152.056 335.853 152.096 335.987 152.176 336.08C152.256 336.16 152.349 336.2 152.456 336.2C152.562 336.2 152.656 336.16 152.736 336.08C152.829 335.987 152.876 335.853 152.876 335.68V331.94C152.622 331.953 152.422 332 152.276 332.08C152.129 332.16 152.056 332.287 152.056 332.46V335.68ZM159.128 338H156.508V325.04H158.888L159.088 325.46C159.368 325.247 159.641 325.093 159.908 325C160.174 324.907 160.421 324.86 160.648 324.86C160.928 324.86 161.181 324.893 161.408 324.96C161.634 325.027 161.828 325.153 161.988 325.34C162.148 325.513 162.268 325.76 162.348 326.08C162.441 326.4 162.488 326.807 162.488 327.3V330.3H159.948V327.36C159.948 327.187 159.908 327.06 159.828 326.98C159.748 326.887 159.654 326.84 159.548 326.84C159.441 326.84 159.341 326.887 159.248 326.98C159.168 327.06 159.128 327.187 159.128 327.36V338ZM162.885 325.04H163.545V323.3H166.185V325.04H167.085V326.84H166.185V335.68C166.185 335.853 166.225 335.987 166.305 336.08C166.385 336.16 166.478 336.2 166.585 336.2H167.125V338H165.085C164.752 338 164.485 337.953 164.285 337.86C164.085 337.753 163.925 337.6 163.805 337.4C163.698 337.2 163.625 336.953 163.585 336.66C163.558 336.367 163.545 336.027 163.545 335.64V326.84H162.885V325.04ZM170.815 325.04H171.475V323.3H174.115V325.04H175.015V326.84H174.115V335.68C174.115 335.853 174.155 335.987 174.235 336.08C174.315 336.16 174.408 336.2 174.515 336.2H175.055V338H173.015C172.682 338 172.415 337.953 172.215 337.86C172.015 337.753 171.855 337.6 171.735 337.4C171.628 337.2 171.555 336.953 171.515 336.66C171.488 336.367 171.475 336.027 171.475 335.64V326.84H170.815V325.04ZM178.268 338H175.648V321.72H178.268V325.5C178.482 325.287 178.728 325.127 179.008 325.02C179.302 324.913 179.562 324.86 179.788 324.86C180.068 324.86 180.322 324.893 180.548 324.96C180.788 325.027 180.995 325.153 181.168 325.34C181.342 325.513 181.475 325.76 181.568 326.08C181.675 326.4 181.728 326.807 181.728 327.3V338H179.088V327.36C179.088 327.187 179.048 327.06 178.968 326.98C178.888 326.887 178.795 326.84 178.688 326.84C178.582 326.84 178.482 326.887 178.388 326.98C178.308 327.06 178.268 327.187 178.268 327.36V338ZM186.139 333.18H188.679V335.46C188.679 336.433 188.519 337.113 188.199 337.5C187.879 337.873 187.325 338.06 186.539 338.06H185.119C184.292 338.06 183.685 337.867 183.299 337.48C182.912 337.08 182.719 336.407 182.719 335.46V327.52C182.719 326.56 182.892 325.893 183.239 325.52C183.585 325.133 184.159 324.94 184.959 324.94H186.259C187.085 324.94 187.692 325.14 188.079 325.54C188.479 325.927 188.679 326.587 188.679 327.52V332.04H185.319V335.68C185.319 335.853 185.359 335.987 185.439 336.08C185.519 336.16 185.612 336.2 185.719 336.2C185.825 336.2 185.919 336.16 185.999 336.08C186.092 335.987 186.139 335.853 186.139 335.68V333.18ZM185.319 330.38H186.139V327.3C186.139 327.14 186.099 327.02 186.019 326.94C185.939 326.847 185.845 326.8 185.739 326.8C185.632 326.8 185.532 326.847 185.439 326.94C185.359 327.02 185.319 327.14 185.319 327.3V330.38ZM196.768 338L196.568 337.58C196.355 337.793 196.095 337.947 195.788 338.04C195.495 338.133 195.235 338.18 195.008 338.18C194.728 338.18 194.468 338.147 194.228 338.08C194.001 338.013 193.801 337.893 193.628 337.72C193.455 337.533 193.315 337.287 193.208 336.98C193.115 336.66 193.068 336.247 193.068 335.74V332.7C193.068 332.167 193.161 331.747 193.348 331.44C193.535 331.12 193.781 330.873 194.088 330.7C194.408 330.527 194.775 330.4 195.188 330.32C195.615 330.24 196.061 330.167 196.528 330.1V327.3C196.528 327.14 196.481 327.02 196.388 326.94C196.308 326.847 196.215 326.8 196.108 326.8C196.001 326.8 195.908 326.847 195.828 326.94C195.748 327.02 195.708 327.14 195.708 327.3V329.34H193.188V327.52C193.188 326.587 193.361 325.927 193.708 325.54C194.068 325.14 194.661 324.94 195.488 324.94H197.008C197.795 324.94 198.348 325.133 198.668 325.52C199.001 325.893 199.168 326.56 199.168 327.52V338H196.768ZM195.708 335.68C195.708 335.853 195.748 335.987 195.828 336.08C195.908 336.16 196.001 336.2 196.108 336.2C196.215 336.2 196.308 336.16 196.388 336.08C196.481 335.987 196.528 335.853 196.528 335.68V331.94C196.275 331.953 196.075 332 195.928 332.08C195.781 332.16 195.708 332.287 195.708 332.46V335.68ZM202.78 338H200.16V325.04H202.52L202.74 325.46C202.953 325.247 203.207 325.093 203.5 325C203.807 324.907 204.073 324.86 204.3 324.86C204.58 324.86 204.833 324.893 205.06 324.96C205.3 325.027 205.507 325.153 205.68 325.34C205.853 325.513 205.987 325.76 206.08 326.08C206.187 326.4 206.24 326.807 206.24 327.3V338H203.6V327.36C203.6 327.187 203.56 327.06 203.48 326.98C203.4 326.887 203.307 326.84 203.2 326.84C203.093 326.84 202.993 326.887 202.9 326.98C202.82 327.06 202.78 327.187 202.78 327.36V338ZM207.23 325.04H209.85V338H207.23V325.04ZM209.85 324.14H207.23V321.72H209.85V324.14ZM213.464 338H210.844V325.04H213.204L213.424 325.46C213.637 325.247 213.89 325.093 214.184 325C214.49 324.907 214.757 324.86 214.984 324.86C215.344 324.86 215.664 324.92 215.944 325.04C216.224 325.16 216.45 325.387 216.624 325.72C216.877 325.387 217.184 325.16 217.544 325.04C217.917 324.92 218.217 324.86 218.444 324.86C218.724 324.86 218.977 324.893 219.204 324.96C219.444 325.027 219.65 325.153 219.824 325.34C219.997 325.513 220.13 325.76 220.224 326.08C220.33 326.4 220.384 326.807 220.384 327.3V338H217.744V327.36C217.744 327.187 217.704 327.06 217.624 326.98C217.544 326.887 217.45 326.84 217.344 326.84C217.09 326.84 216.95 326.993 216.924 327.3V338H214.284V327.36C214.284 327.187 214.244 327.06 214.164 326.98C214.084 326.887 213.99 326.84 213.884 326.84C213.777 326.84 213.677 326.887 213.584 326.98C213.504 327.06 213.464 327.187 213.464 327.36V338ZM224.991 338L224.791 337.58C224.577 337.793 224.317 337.947 224.011 338.04C223.717 338.133 223.457 338.18 223.231 338.18C222.951 338.18 222.691 338.147 222.451 338.08C222.224 338.013 222.024 337.893 221.851 337.72C221.677 337.533 221.537 337.287 221.431 336.98C221.337 336.66 221.291 336.247 221.291 335.74V332.7C221.291 332.167 221.384 331.747 221.571 331.44C221.757 331.12 222.004 330.873 222.311 330.7C222.631 330.527 222.997 330.4 223.411 330.32C223.837 330.24 224.284 330.167 224.751 330.1V327.3C224.751 327.14 224.704 327.02 224.611 326.94C224.531 326.847 224.437 326.8 224.331 326.8C224.224 326.8 224.131 326.847 224.051 326.94C223.971 327.02 223.931 327.14 223.931 327.3V329.34H221.411V327.52C221.411 326.587 221.584 325.927 221.931 325.54C222.291 325.14 222.884 324.94 223.711 324.94H225.231C226.017 324.94 226.571 325.133 226.891 325.52C227.224 325.893 227.391 326.56 227.391 327.52V338H224.991ZM223.931 335.68C223.931 335.853 223.971 335.987 224.051 336.08C224.131 336.16 224.224 336.2 224.331 336.2C224.437 336.2 224.531 336.16 224.611 336.08C224.704 335.987 224.751 335.853 224.751 335.68V331.94C224.497 331.953 224.297 332 224.151 332.08C224.004 332.16 223.931 332.287 223.931 332.46V335.68ZM227.983 325.04H228.643V323.3H231.283V325.04H232.183V326.84H231.283V335.68C231.283 335.853 231.323 335.987 231.403 336.08C231.483 336.16 231.576 336.2 231.683 336.2H232.223V338H230.183C229.849 338 229.583 337.953 229.383 337.86C229.183 337.753 229.023 337.6 228.903 337.4C228.796 337.2 228.723 336.953 228.683 336.66C228.656 336.367 228.643 336.027 228.643 335.64V326.84H227.983V325.04ZM232.816 325.04H235.436V338H232.816V325.04ZM235.436 324.14H232.816V321.72H235.436V324.14ZM242.51 335.46C242.51 336.433 242.336 337.113 241.99 337.5C241.643 337.873 241.07 338.06 240.27 338.06H238.83C238.003 338.06 237.396 337.867 237.01 337.48C236.623 337.08 236.43 336.407 236.43 335.46V327.52C236.43 326.56 236.603 325.893 236.95 325.52C237.296 325.133 237.87 324.94 238.67 324.94H240.09C240.93 324.94 241.543 325.14 241.93 325.54C242.316 325.927 242.51 326.587 242.51 327.52V335.46ZM239.87 327.3C239.87 327.14 239.83 327.02 239.75 326.94C239.67 326.847 239.576 326.8 239.47 326.8C239.363 326.8 239.263 326.847 239.17 326.94C239.09 327.02 239.05 327.14 239.05 327.3V335.68C239.05 335.853 239.09 335.987 239.17 336.08C239.25 336.16 239.343 336.2 239.45 336.2C239.556 336.2 239.65 336.16 239.73 336.08C239.823 335.987 239.87 335.853 239.87 335.68V327.3ZM246.12 338H243.5V325.04H245.86L246.08 325.46C246.293 325.247 246.547 325.093 246.84 325C247.147 324.907 247.413 324.86 247.64 324.86C247.92 324.86 248.173 324.893 248.4 324.96C248.64 325.027 248.847 325.153 249.02 325.34C249.193 325.513 249.327 325.76 249.42 326.08C249.527 326.4 249.58 326.807 249.58 327.3V338H246.94V327.36C246.94 327.187 246.9 327.06 246.82 326.98C246.74 326.887 246.647 326.84 246.54 326.84C246.433 326.84 246.333 326.887 246.24 326.98C246.16 327.06 246.12 327.187 246.12 327.36V338ZM252.99 338H250.37V335.58H252.99V338Z" fill="white"/>
</g>
<g filter="url(#filter1_d_211_128)">
<path d="M140.092 254.464H145.252L147.124 274H143.86L143.476 269.08H141.796L141.436 274H138.148L140.092 254.464ZM141.988 266.44H143.284L142.636 257.824L141.988 266.44ZM147.845 254.464H151.253V271.36H153.725V274H147.845V254.464ZM154.689 254.464H158.097V274H154.689V254.464ZM167.364 271.096C167.364 272.264 167.148 273.08 166.716 273.544C166.3 273.992 165.612 274.216 164.652 274.216H162.3C161.308 274.216 160.58 273.976 160.116 273.496C159.652 273.016 159.42 272.216 159.42 271.096V257.32C159.42 256.152 159.628 255.344 160.044 254.896C160.46 254.432 161.148 254.2 162.108 254.2H164.316C165.324 254.2 166.06 254.44 166.524 254.92C166.988 255.384 167.22 256.184 167.22 257.32V260.8H163.932V257.32C163.932 257.112 163.876 256.96 163.764 256.864C163.652 256.752 163.532 256.696 163.404 256.696C163.276 256.696 163.148 256.752 163.02 256.864C162.892 256.96 162.828 257.112 162.828 257.32V271.096C162.828 271.288 162.884 271.44 162.996 271.552C163.124 271.648 163.252 271.696 163.38 271.696C163.508 271.696 163.628 271.648 163.74 271.552C163.868 271.44 163.932 271.288 163.932 271.096V267.016H163.332V264.352H167.364V271.096ZM171.636 263.56V274H168.564V254.464H172.092L174.18 264.952V254.464H177.348V274H173.676L171.636 263.56ZM187.37 266.92H190.658V271.096C190.658 272.264 190.45 273.08 190.034 273.544C189.618 273.992 188.93 274.216 187.97 274.216H185.738C184.746 274.216 184.018 273.976 183.554 273.496C183.09 273.016 182.858 272.216 182.858 271.096V257.32C182.858 256.152 183.066 255.344 183.482 254.896C183.898 254.432 184.586 254.2 185.546 254.2H187.754C188.762 254.2 189.498 254.44 189.962 254.92C190.426 255.384 190.658 256.184 190.658 257.32V260.8H187.37V257.32C187.37 257.112 187.314 256.96 187.202 256.864C187.09 256.752 186.97 256.696 186.842 256.696C186.714 256.696 186.586 256.752 186.458 256.864C186.33 256.96 186.266 257.112 186.266 257.32V271.096C186.266 271.288 186.322 271.44 186.434 271.552C186.562 271.648 186.69 271.696 186.818 271.696C186.946 271.696 187.066 271.648 187.178 271.552C187.306 271.44 187.37 271.288 187.37 271.096V266.92ZM193.085 254.464H198.245L200.117 274H196.853L196.469 269.08H194.789L194.429 274H191.141L193.085 254.464ZM194.981 266.44H196.277L195.629 257.824L194.981 266.44ZM207.101 274H205.613L203.981 262.528V274H200.837V254.464H204.773L206.333 263.944L207.917 254.464H211.853V274H208.709V262.528L207.101 274ZM219.259 274H213.283V254.464H219.259V257.104H216.691V262.744H219.019V265.384H216.691V271.36H219.259V274ZM228.281 274H224.849V266.872C224.849 266.68 224.785 266.536 224.657 266.44C224.545 266.328 224.425 266.272 224.297 266.272H223.745V274H220.337V254.464H225.377C226.369 254.464 227.097 254.704 227.561 255.184C228.041 255.648 228.281 256.448 228.281 257.584V261.904C228.281 262.896 228.129 263.624 227.825 264.088C227.537 264.552 227.057 264.848 226.385 264.976C227.057 265.088 227.537 265.384 227.825 265.864C228.129 266.328 228.281 267.048 228.281 268.024V274ZM224.849 257.584C224.849 257.376 224.793 257.224 224.681 257.128C224.569 257.016 224.449 256.96 224.321 256.96H223.745V263.728H224.297C224.425 263.728 224.545 263.68 224.657 263.584C224.785 263.472 224.849 263.32 224.849 263.128V257.584ZM230.819 254.464H235.979L237.851 274H234.587L234.203 269.08H232.523L232.163 274H228.875L230.819 254.464ZM232.715 266.44H234.011L233.363 257.824L232.715 266.44Z" fill="white"/>
</g>
<g filter="url(#filter2_d_211_128)">
<path d="M65 142H50V157" stroke="white" stroke-width="3"/>
</g>
<g filter="url(#filter3_d_211_128)">
<path d="M65 466H50V451" stroke="white" stroke-width="3"/>
</g>
<g filter="url(#filter4_d_211_128)">
<path d="M310 142H325V157" stroke="white" stroke-width="3"/>
</g>
<g filter="url(#filter5_d_211_128)">
<path d="M310 466H325V451" stroke="white" stroke-width="3"/>
</g>
<defs>
<filter id="filter0_d_211_128" x="85.8442" y="296.72" width="204.419" height="46.46" filterUnits="userSpaceOnUse" color-interpolation-filters="sRGB">
<feFlood flood-opacity="0" result="BackgroundImageFix"/>
<feColorMatrix in="SourceAlpha" type="matrix" values="0 0 0 0 0 0 0 0 0 0 0 0 0 0 0 0 0 0 127 0" result="hardAlpha"/>
<feOffset dy="2"/>
<feGaussianBlur stdDeviation="1.5"/>
<feComposite in2="hardAlpha" operator="out"/>
<feColorMatrix type="matrix" values="0 0 0 0 0 0 0 0 0 0 0 0 0 0 0 0 0 0 0.2 0"/>
<feBlend mode="normal" in2="BackgroundImageFix" result="effect1_dropShadow_211_128"/>
<feBlend mode="normal" in="SourceGraphic" in2="effect1_dropShadow_211_128" result="shape"/>
</filter>
<filter id="filter1_d_211_128" x="135.148" y="253.2" width="105.703" height="26.016" filterUnits="userSpaceOnUse" color-interpolation-filters="sRGB">
<feFlood flood-opacity="0" result="BackgroundImageFix"/>
<feColorMatrix in="SourceAlpha" type="matrix" values="0 0 0 0 0 0 0 0 0 0 0 0 0 0 0 0 0 0 127 0" result="hardAlpha"/>
<feOffset dy="2"/>
<feGaussianBlur stdDeviation="1.5"/>
<feComposite in2="hardAlpha" operator="out"/>
<feColorMatrix type="matrix" values="0 0 0 0 0 0 0 0 0 0 0 0 0 0 0 0 0 0 0.2 0"/>
<feBlend mode="normal" in2="BackgroundImageFix" result="effect1_dropShadow_211_128"/>
<feBlend mode="normal" in="SourceGraphic" in2="effect1_dropShadow_211_128" result="shape"/>
</filter>
<filter id="filter2_d_211_128" x="45.5" y="139.5" width="22.5" height="22.5" filterUnits="userSpaceOnUse" color-interpolation-filters="sRGB">
<feFlood flood-opacity="0" result="BackgroundImageFix"/>
<feColorMatrix in="SourceAlpha" type="matrix" values="0 0 0 0 0 0 0 0 0 0 0 0 0 0 0 0 0 0 127 0" result="hardAlpha"/>
<feOffset dy="2"/>
<feGaussianBlur stdDeviation="1.5"/>
<feComposite in2="hardAlpha" operator="out"/>
<feColorMatrix type="matrix" values="0 0 0 0 0 0 0 0 0 0 0 0 0 0 0 0 0 0 0.2 0"/>
<feBlend mode="normal" in2="BackgroundImageFix" result="effect1_dropShadow_211_128"/>
<feBlend mode="normal" in="SourceGraphic" in2="effect1_dropShadow_211_128" result="shape"/>
</filter>
<filter id="filter3_d_211_128" x="45.5" y="450" width="22.5" height="22.5" filterUnits="userSpaceOnUse" color-interpolation-filters="sRGB">
<feFlood flood-opacity="0" result="BackgroundImageFix"/>
<feColorMatrix in="SourceAlpha" type="matrix" values="0 0 0 0 0 0 0 0 0 0 0 0 0 0 0 0 0 0 127 0" result="hardAlpha"/>
<feOffset dy="2"/>
<feGaussianBlur stdDeviation="1.5"/>
<feComposite in2="hardAlpha" operator="out"/>
<feColorMatrix type="matrix" values="0 0 0 0 0 0 0 0 0 0 0 0 0 0 0 0 0 0 0.2 0"/>
<feBlend mode="normal" in2="BackgroundImageFix" result="effect1_dropShadow_211_128"/>
<feBlend mode="normal" in="SourceGraphic" in2="effect1_dropShadow_211_128" result="shape"/>
</filter>
<filter id="filter4_d_211_128" x="307" y="139.5" width="22.5" height="22.5" filterUnits="userSpaceOnUse" color-interpolation-filters="sRGB">
<feFlood flood-opacity="0" result="BackgroundImageFix"/>
<feColorMatrix in="SourceAlpha" type="matrix" values="0 0 0 0 0 0 0 0 0 0 0 0 0 0 0 0 0 0 127 0" result="hardAlpha"/>
<feOffset dy="2"/>
<feGaussianBlur stdDeviation="1.5"/>
<feComposite in2="hardAlpha" operator="out"/>
<feColorMatrix type="matrix" values="0 0 0 0 0 0 0 0 0 0 0 0 0 0 0 0 0 0 0.2 0"/>
<feBlend mode="normal" in2="BackgroundImageFix" result="effect1_dropShadow_211_128"/>
<feBlend mode="normal" in="SourceGraphic" in2="effect1_dropShadow_211_128" result="shape"/>
</filter>
<filter id="filter5_d_211_128" x="307" y="450" width="22.5" height="22.5" filterUnits="userSpaceOnUse" color-interpolation-filters="sRGB">
<feFlood flood-opacity="0" result="BackgroundImageFix"/>
<feColorMatrix in="SourceAlpha" type="matrix" values="0 0 0 0 0 0 0 0 0 0 0 0 0 0 0 0 0 0 127 0" result="hardAlpha"/>
<feOffset dy="2"/>
<feGaussianBlur stdDeviation="1.5"/>
<feComposite in2="hardAlpha" operator="out"/>
<feColorMatrix type="matrix" values="0 0 0 0 0 0 0 0 0 0 0 0 0 0 0 0 0 0 0.2 0"/>
<feBlend mode="normal" in2="BackgroundImageFix" result="effect1_dropShadow_211_128"/>
<feBlend mode="normal" in="SourceGraphic" in2="effect1_dropShadow_211_128" result="shape"/>
</filter>
</defs>
</svg>
