<svg width="71" height="63" viewBox="0 0 71 63" fill="none" xmlns="http://www.w3.org/2000/svg">
<path d="M15.6109 9.68329L14.6286 10.6656C3.04974 22.2445 3.02254 40.9904 14.5678 52.5357C15.491 53.4589 15.4897 54.9585 14.563 55.8852C13.6362 56.812 12.1375 56.8142 11.2134 55.8901C-2.17913 42.4975 -2.14759 20.7524 11.2839 7.32096L12.2662 6.33861L9.61055 6.34247C8.30265 6.34436 7.24347 5.28519 7.24537 3.97729C7.24727 2.66939 8.30952 1.60714 9.61742 1.60524L17.9921 1.59309C19.3 1.59119 20.3592 2.65037 20.3573 3.95827L20.3452 12.333C20.3433 13.6409 19.281 14.7031 17.9731 14.705C16.6652 14.7069 15.606 13.6477 15.6079 12.3399L15.6118 9.68416L15.6109 9.68329ZM55.4556 53.4573L56.4379 52.475C68.0167 40.8961 68.0439 22.1502 56.4986 10.6049C55.5754 9.68169 55.5767 8.18212 56.5035 7.25536C57.4303 6.32861 58.929 6.32643 59.853 7.2505C73.2456 20.6431 73.2141 42.3882 59.7826 55.8197L58.8002 56.802L61.4559 56.7981C62.7638 56.7962 63.823 57.8554 63.8211 59.1633C63.8192 60.4712 62.757 61.5335 61.4491 61.5354L53.0743 61.5475C51.7664 61.5494 50.7073 60.4902 50.7092 59.1823L50.7213 50.8076C50.7232 49.4997 51.7855 48.4375 53.0934 48.4356C54.4013 48.4337 55.4604 49.4929 55.4585 50.8008L55.4547 53.4565L55.4556 53.4573ZM27.1301 52.3735C25.8222 52.3754 24.763 51.3162 24.7649 50.0083L24.8184 13.1634C24.8203 11.8555 25.8825 10.7933 27.1904 10.7914L43.9381 10.7671C45.246 10.7652 46.3052 11.8244 46.3033 13.1323L46.2498 49.9772C46.2479 51.2851 45.1857 52.3473 43.8778 52.3492L27.1301 52.3735Z" stroke="#CEFF00" stroke-width="2" stroke-miterlimit="10"/>
</svg>
